<svg xmlns="http://www.w3.org/2000/svg" xmlns:xlink="http://www.w3.org/1999/xlink" width="500" zoomAndPan="magnify" viewBox="0 0 375 374.999991" height="500" preserveAspectRatio="xMidYMid meet" version="1.0"><defs><g/><clipPath id="4b1b9fd2d2"><path d="M 214 50 L 301.113281 50 L 301.113281 228 L 214 228 Z M 214 50 " clip-rule="nonzero"/></clipPath><clipPath id="184f56f6bc"><path d="M 95 21.253906 L 259 21.253906 L 259 115 L 95 115 Z M 95 21.253906 " clip-rule="nonzero"/></clipPath></defs><g fill="#ffffff" fill-opacity="1"><g transform="translate(51.07995, 281.39834)"><g><path d="M 21 -37.265625 C 23.75 -37.265625 26.453125 -36.703125 29.109375 -35.578125 C 31.765625 -34.453125 34.023438 -32.9375 35.890625 -31.03125 L 30.453125 -24.59375 C 29.253906 -26.070312 27.816406 -27.242188 26.140625 -28.109375 C 24.472656 -28.972656 22.816406 -29.40625 21.171875 -29.40625 C 18.242188 -29.40625 15.796875 -28.375 13.828125 -26.3125 C 11.859375 -24.25 10.875 -21.707031 10.875 -18.6875 C 10.875 -15.59375 11.859375 -13.003906 13.828125 -10.921875 C 15.796875 -8.847656 18.242188 -7.8125 21.171875 -7.8125 C 22.710938 -7.8125 24.316406 -8.195312 25.984375 -8.96875 C 27.660156 -9.75 29.148438 -10.804688 30.453125 -12.140625 L 35.9375 -6.328125 C 33.9375 -4.285156 31.570312 -2.648438 28.84375 -1.421875 C 26.113281 -0.191406 23.394531 0.421875 20.6875 0.421875 C 15.125 0.421875 10.492188 -1.390625 6.796875 -5.015625 C 3.109375 -8.640625 1.265625 -13.160156 1.265625 -18.578125 C 1.265625 -23.890625 3.144531 -28.332031 6.90625 -31.90625 C 10.675781 -35.476562 15.375 -37.265625 21 -37.265625 Z M 21 -37.265625 "/></g></g></g><g fill="#ffffff" fill-opacity="1"><g transform="translate(88.660366, 281.39834)"><g><path d="M 25.96875 0 L 20.484375 -10.390625 L 13.09375 -10.390625 L 13.09375 0 L 3.6875 0 L 3.6875 -36.953125 L 20.21875 -36.953125 C 25.101562 -36.953125 28.882812 -35.832031 31.5625 -33.59375 C 34.238281 -31.363281 35.578125 -28.1875 35.578125 -24.0625 C 35.578125 -18.363281 33.34375 -14.40625 28.875 -12.1875 L 36.625 0 Z M 13.09375 -17.78125 L 20.21875 -17.78125 C 22.257812 -17.78125 23.84375 -18.289062 24.96875 -19.3125 C 26.09375 -20.332031 26.65625 -21.8125 26.65625 -23.75 C 26.65625 -25.65625 26.09375 -27.097656 24.96875 -28.078125 C 23.84375 -29.066406 22.257812 -29.5625 20.21875 -29.5625 L 13.09375 -29.5625 Z M 13.09375 -17.78125 "/></g></g></g><g fill="#ffffff" fill-opacity="1"><g transform="translate(127.92978, 281.39834)"><g><path d="M 32.625 -29.5625 L 13.09375 -29.5625 L 13.09375 -22.21875 L 30.71875 -22.21875 L 30.71875 -14.828125 L 13.09375 -14.828125 L 13.09375 -7.390625 L 33.203125 -7.390625 L 33.203125 0 L 3.6875 0 L 3.6875 -36.953125 L 32.625 -36.953125 Z M 32.625 -29.5625 "/></g></g></g><g fill="#ffffff" fill-opacity="1"><g transform="translate(164.560129, 281.39834)"><g><path d="M 28.234375 -6.8125 L 12.09375 -6.8125 L 9.390625 0 L -0.265625 0 L 15.671875 -36.953125 L 25.328125 -36.953125 L 40.90625 0 L 30.875 0 Z M 25.5 -13.9375 L 20.21875 -27.609375 L 14.828125 -13.9375 Z M 25.5 -13.9375 "/></g></g></g><g fill="#ffffff" fill-opacity="1"><g transform="translate(206.257476, 281.39834)"><g><path d="M 13.09375 -7.859375 L 28.765625 -7.859375 L 28.765625 0 L 3.6875 0 L 3.6875 -36.953125 L 13.09375 -36.953125 Z M 13.09375 -7.859375 "/></g></g></g><g fill="#ffffff" fill-opacity="1"><g transform="translate(236.870774, 281.39834)"><g><path d="M 13.09375 0 L 3.6875 0 L 3.6875 -36.953125 L 13.09375 -36.953125 Z M 13.09375 0 "/></g></g></g><g fill="#ffffff" fill-opacity="1"><g transform="translate(254.711002, 281.39834)"><g><path d="M 31.9375 -29.40625 L 20.796875 -29.40625 L 20.796875 0 L 11.40625 0 L 11.40625 -29.40625 L 0.375 -29.40625 L 0.375 -37 L 31.9375 -37 Z M 31.9375 -29.40625 "/></g></g></g><g fill="#ffffff" fill-opacity="1"><g transform="translate(288.016123, 281.39834)"><g><path d="M 22.75 -11.921875 L 22.75 0 L 13.40625 0 L 13.40625 -11.671875 L -0.265625 -36.953125 L 9.125 -36.953125 L 18.046875 -20.84375 L 26.765625 -36.953125 L 36.15625 -36.953125 Z M 22.75 -11.921875 "/></g></g></g><g fill="#ffffff" fill-opacity="1"><g transform="translate(112.990106, 354.898335)"><g><path d="M 31.9375 -29.40625 L 20.796875 -29.40625 L 20.796875 0 L 11.40625 0 L 11.40625 -29.40625 L 0.375 -29.40625 L 0.375 -37 L 31.9375 -37 Z M 31.9375 -29.40625 "/></g></g></g><g fill="#ffffff" fill-opacity="1"><g transform="translate(146.295238, 354.898335)"><g><path d="M 32.625 -29.5625 L 13.09375 -29.5625 L 13.09375 -22.21875 L 30.71875 -22.21875 L 30.71875 -14.828125 L 13.09375 -14.828125 L 13.09375 -7.390625 L 33.203125 -7.390625 L 33.203125 0 L 3.6875 0 L 3.6875 -36.953125 L 32.625 -36.953125 Z M 32.625 -29.5625 "/></g></g></g><g fill="#ffffff" fill-opacity="1"><g transform="translate(182.925587, 354.898335)"><g><path d="M 21 -37.265625 C 23.75 -37.265625 26.453125 -36.703125 29.109375 -35.578125 C 31.765625 -34.453125 34.023438 -32.9375 35.890625 -31.03125 L 30.453125 -24.59375 C 29.253906 -26.070312 27.816406 -27.242188 26.140625 -28.109375 C 24.472656 -28.972656 22.816406 -29.40625 21.171875 -29.40625 C 18.242188 -29.40625 15.796875 -28.375 13.828125 -26.3125 C 11.859375 -24.25 10.875 -21.707031 10.875 -18.6875 C 10.875 -15.59375 11.859375 -13.003906 13.828125 -10.921875 C 15.796875 -8.847656 18.242188 -7.8125 21.171875 -7.8125 C 22.710938 -7.8125 24.316406 -8.195312 25.984375 -8.96875 C 27.660156 -9.75 29.148438 -10.804688 30.453125 -12.140625 L 35.9375 -6.328125 C 33.9375 -4.285156 31.570312 -2.648438 28.84375 -1.421875 C 26.113281 -0.191406 23.394531 0.421875 20.6875 0.421875 C 15.125 0.421875 10.492188 -1.390625 6.796875 -5.015625 C 3.109375 -8.640625 1.265625 -13.160156 1.265625 -18.578125 C 1.265625 -23.890625 3.144531 -28.332031 6.90625 -31.90625 C 10.675781 -35.476562 15.375 -37.265625 21 -37.265625 Z M 21 -37.265625 "/></g></g></g><g fill="#ffffff" fill-opacity="1"><g transform="translate(220.506003, 354.898335)"><g><path d="M 37.796875 0 L 28.390625 0 L 28.390625 -14.359375 L 13.09375 -14.359375 L 13.09375 0 L 3.6875 0 L 3.6875 -36.953125 L 13.09375 -36.953125 L 13.09375 -21.75 L 28.390625 -21.75 L 28.390625 -36.953125 L 37.796875 -36.953125 Z M 37.796875 0 "/></g></g></g><g clip-path="url(#4b1b9fd2d2)"><path fill="#ffffff" d="M 292.5625 139.859375 L 301.390625 124.617188 L 258.292969 50.144531 L 230.746094 98.003906 C 229.902344 97.84375 229.039062 97.738281 228.15625 97.738281 C 220.386719 97.738281 214.066406 104.058594 214.066406 111.828125 C 214.066406 119.59375 220.386719 125.914062 228.15625 125.914062 C 229.039062 125.914062 229.902344 125.8125 230.746094 125.652344 L 260.386719 176.835938 L 246.945312 200.097656 C 241.253906 199.054688 235.273438 201.582031 232.210938 206.878906 C 228.34375 213.601562 230.652344 222.234375 237.375 226.113281 C 239.582031 227.398438 242.007812 228 244.390625 228 C 249.277344 228 254.007812 225.464844 256.621094 220.957031 C 259.679688 215.660156 258.855469 209.207031 255.089844 204.792969 L 271.25 176.84375 L 238.851562 120.910156 C 240.9375 118.449219 242.25 115.3125 242.25 111.835938 C 242.25 108.363281 240.945312 105.226562 238.851562 102.773438 L 258.320312 68.9375 L 290.542969 124.628906 L 284.417969 135.191406 C 281.226562 134.601562 277.835938 135.035156 274.820312 136.789062 C 268.085938 140.679688 265.785156 149.316406 269.675781 156.042969 C 272.285156 160.539062 277.027344 163.066406 281.902344 163.066406 C 284.296875 163.066406 286.71875 162.464844 288.925781 161.179688 C 295.652344 157.292969 297.953125 148.660156 294.0625 141.9375 C 293.632812 141.183594 293.113281 140.507812 292.570312 139.871094 Z M 248.488281 216.261719 C 247.179688 218.496094 244.289062 219.246094 242.0625 217.988281 C 239.828125 216.691406 239.058594 213.808594 240.335938 211.566406 C 241.207031 210.0625 242.796875 209.214844 244.421875 209.214844 C 245.21875 209.214844 246.027344 209.414062 246.757812 209.835938 C 249.003906 211.140625 249.773438 214.007812 248.488281 216.261719 Z M 223.457031 111.835938 C 223.457031 109.253906 225.570312 107.140625 228.15625 107.140625 C 230.738281 107.140625 232.851562 109.253906 232.851562 111.835938 C 232.851562 114.417969 230.738281 116.53125 228.15625 116.53125 C 225.570312 116.53125 223.457031 114.417969 223.457031 111.835938 Z M 286.390625 150.191406 C 286.070312 151.402344 285.300781 152.40625 284.222656 153.046875 C 281.957031 154.3125 279.085938 153.5625 277.789062 151.328125 C 276.492188 149.082031 277.261719 146.210938 279.507812 144.902344 C 280.25 144.480469 281.054688 144.285156 281.855469 144.285156 C 283.480469 144.285156 285.058594 145.121094 285.929688 146.621094 C 286.550781 147.710938 286.730469 148.980469 286.398438 150.191406 Z M 286.390625 150.191406 " fill-opacity="1" fill-rule="nonzero"/></g><g clip-path="url(#184f56f6bc)"><path fill="#ffffff" d="M 164.113281 114.605469 C 171.878906 114.605469 178.199219 108.285156 178.199219 100.519531 C 178.199219 97.035156 176.878906 93.878906 174.773438 91.417969 L 204.28125 40.09375 L 231.1875 40.09375 C 233.132812 45.550781 238.296875 49.488281 244.410156 49.488281 C 252.175781 49.488281 258.5 43.167969 258.5 35.398438 C 258.5 27.632812 252.175781 21.3125 244.410156 21.3125 C 238.296875 21.3125 233.132812 25.246094 231.1875 30.703125 L 198.851562 30.703125 L 166.660156 86.6875 C 165.832031 86.535156 164.976562 86.433594 164.105469 86.433594 C 158 86.433594 152.84375 90.359375 150.890625 95.796875 L 111.945312 95.796875 L 144.089844 40.09375 L 156.335938 40.09375 C 157.464844 43.25 159.492188 45.964844 162.421875 47.644531 C 164.582031 48.90625 166.996094 49.542969 169.4375 49.542969 C 170.660156 49.542969 171.898438 49.375 173.109375 49.054688 C 176.753906 48.078125 179.789062 45.730469 181.667969 42.472656 C 185.535156 35.738281 183.214844 27.117188 176.492188 23.246094 C 173.234375 21.359375 169.429688 20.863281 165.804688 21.839844 C 162.160156 22.816406 159.128906 25.164062 157.257812 28.414062 C 156.828125 29.144531 156.496094 29.925781 156.214844 30.703125 L 138.664062 30.703125 L 95.679688 105.1875 L 150.890625 105.1875 C 152.824219 110.652344 158 114.605469 164.125 114.605469 Z M 244.410156 30.703125 C 246.992188 30.703125 249.105469 32.816406 249.105469 35.398438 C 249.105469 37.980469 246.992188 40.09375 244.410156 40.09375 C 241.828125 40.09375 239.714844 37.980469 239.714844 35.398438 C 239.714844 32.816406 241.828125 30.703125 244.410156 30.703125 Z M 165.390625 33.097656 C 166.011719 32.019531 167.023438 31.238281 168.238281 30.910156 C 168.640625 30.808594 169.054688 30.75 169.46875 30.75 C 170.273438 30.75 171.074219 30.957031 171.796875 31.371094 C 172.875 32 173.65625 33.015625 173.976562 34.226562 C 174.304688 35.4375 174.132812 36.703125 173.503906 37.792969 C 172.886719 38.875 171.871094 39.652344 170.660156 39.984375 C 169.4375 40.292969 168.179688 40.140625 167.089844 39.503906 C 166.011719 38.882812 165.230469 37.871094 164.902344 36.65625 C 164.582031 35.445312 164.742188 34.179688 165.382812 33.089844 Z M 164.113281 95.824219 C 166.695312 95.824219 168.808594 97.9375 168.808594 100.519531 C 168.808594 103.101562 166.695312 105.214844 164.113281 105.214844 C 161.53125 105.214844 159.417969 103.101562 159.417969 100.519531 C 159.417969 97.9375 161.53125 95.824219 164.113281 95.824219 Z M 164.113281 95.824219 " fill-opacity="1" fill-rule="nonzero"/></g><path fill="#ffffff" d="M 200.457031 161.628906 C 200.457031 153.863281 194.136719 147.542969 186.371094 147.542969 C 180.257812 147.542969 175.09375 151.476562 173.148438 156.933594 L 113.933594 157.019531 L 100.496094 133.765625 C 104.253906 129.351562 105.089844 122.910156 102.027344 117.613281 C 98.15625 110.898438 89.527344 108.597656 82.792969 112.445312 C 76.070312 116.335938 73.757812 124.964844 77.636719 131.699219 C 80.238281 136.207031 84.980469 138.742188 89.863281 138.742188 C 90.699219 138.742188 91.527344 138.574219 92.355469 138.421875 L 108.535156 166.417969 L 173.15625 166.335938 C 175.101562 171.792969 180.265625 175.726562 186.382812 175.726562 C 187.265625 175.726562 188.117188 175.625 188.964844 175.464844 L 208.402344 209.246094 L 144.089844 209.246094 L 137.988281 198.699219 C 140.109375 196.226562 141.441406 193.054688 141.441406 189.542969 C 141.441406 181.785156 135.105469 175.472656 127.335938 175.472656 C 119.570312 175.492188 113.257812 181.8125 113.269531 189.578125 C 113.269531 193.335938 114.734375 196.875 117.390625 199.535156 C 120.050781 202.191406 123.582031 203.648438 127.335938 203.648438 L 127.363281 203.648438 C 128.21875 203.648438 129.035156 203.542969 129.855469 203.394531 L 138.683594 218.636719 L 224.632812 218.636719 L 197.058594 170.710938 C 199.152344 168.25 200.457031 165.105469 200.457031 161.640625 Z M 85.761719 127.011719 C 84.464844 124.769531 85.234375 121.886719 87.480469 120.589844 C 89.6875 119.265625 92.597656 120.054688 93.902344 122.308594 C 95.199219 124.542969 94.429688 127.425781 92.175781 128.730469 C 89.949219 130.007812 87.046875 129.25 85.761719 127.011719 Z M 127.347656 194.246094 C 126.097656 194.246094 124.914062 193.757812 124.03125 192.875 C 123.140625 191.984375 122.660156 190.808594 122.660156 189.550781 C 122.660156 186.957031 124.765625 184.847656 127.347656 184.847656 C 129.929688 184.847656 132.042969 186.957031 132.050781 189.53125 C 132.050781 192.125 129.949219 194.238281 127.355469 194.238281 Z M 181.675781 161.628906 C 181.675781 159.046875 183.789062 156.933594 186.371094 156.933594 C 188.953125 156.933594 191.066406 159.046875 191.066406 161.628906 C 191.066406 164.210938 188.953125 166.324219 186.371094 166.324219 C 183.789062 166.324219 181.675781 164.210938 181.675781 161.628906 Z M 181.675781 161.628906 " fill-opacity="1" fill-rule="nonzero"/></svg>